<svg xmlns="http://www.w3.org/2000/svg" viewBox="396 432 2280 2280" width="1024" height="1024" xmlns:c2pa="http://c2pa.org/manifest"><metadata><c2pa:manifest>AAAWgmp1bWIAAAAeanVtZGMycGEAEQAQgAAAqgA4m3EDYzJwYQAAABZcanVtYgAAAEdqdW1kYzJtYQARABCAAACqADibcQN1cm46YzJwYTpkOWRhN2Y5Zi0zMmM2LTQ5MjUtYWFhNS04MGJlNmYxNjQ0MzMAAAADl2p1bWIAAAApanVtZGMyYXMAEQAQgAAAqgA4m3EDYzJwYS5hc3NlcnRpb25zAAAAALxqdW1iAAAARGp1bWRjYm9yABEAEIAAAKoAOJtxE2MycGEuaW5ncmVkaWVudC52MwAAAAAYYzJzaNdQgZ67IBDoqz8gszTyt6kAAABwY2JvcqNpZGM6Zm9ybWF0bWltYWdlL3N2Zyt4bWxqaW5zdGFuY2VJRHgseG1wOmlpZDo3ZTdkOTUyNy03YTI4LTQ5YjAtOTZjNC1hNmYyN2ZmMTQxNDVscmVsYXRpb25zaGlwaHBhcmVudE9mAAAB4mp1bWIAAABBanVtZGNib3IAEQAQgAAAqgA4m3ETYzJwYS5hY3Rpb25zLnYyAAAAABhjMnNoSsfW7r0mhsYdkdEW+puBoQAAAZljYm9yomdhY3Rpb25zgqJmYWN0aW9ua2MycGEub3BlbmVkanBhcmFtZXRlcnOha2luZ3JlZGllbnRzgaJjdXJseC1zZWxmI2p1bWJmPWMycGEuYXNzZXJ0aW9ucy9jMnBhLmluZ3JlZGllbnQudjNkaGFzaFggJHv2DhE2gDqMVD5xp8NwvlD+R1hk6FMREApkl1bhmaekZmFjdGlvbngdY29tLmFudGhyb3BpYy5jbGF1ZGUucHJvdmlkZWRqcGFyYW1ldGVyc6F4H2NvbS5hbnRocm9waWMub3JpZ2luLWNvbmZpZGVuY2VndW5rbm93bmtkZXNjcmlwdGlvbnhmQ2xhdWRlIHByb3ZpZGVkIHRoaXMgZmlsZSBhdCB0aGUgcmVxdWVzdCBvZiBhIHVzZXIgYW5kIG1heSBoYXZlIGNyZWF0ZWQgb3IgbW9kaWZpZWQgdGhlIGZpbGUgY29udGVudHMubXNvZnR3YXJlQWdlbnShZG5hbWVmQ2xhdWRlcmFsbEFjdGlvbnNJbmNsdWRlZPUAAADIanVtYgAAAEBqdW1kY2JvcgARABCAAACqADibcRNjMnBhLmhhc2guZGF0YQAAAAAYYzJzaJm/GMCsJCEjEWOBpuDsYE4AAACAY2JvcqVjYWxnZnNoYTI1NmNwYWRNAAAAAAAAAAAAAAAAAGRoYXNoWCAhJQpODwzBm/sshz/ONNHaDHe8VF4ZVSDQVJS2dd0s9GRuYW1lbmp1bWJmIG1hbmlmZXN0amV4Y2x1c2lvbnOBomVzdGFydBieZmxlbmd0aBkeBAAAAj5qdW1iAAAAJ2p1bWRjMmNsABEAEIAAAKoAOJtxA2MycGEuY2xhaW0udjIAAAACD2Nib3KlY2FsZ2ZzaGEyNTZpc2lnbmF0dXJleE1zZWxmI2p1bWJmPS9jMnBhL3VybjpjMnBhOmQ5ZGE3ZjlmLTMyYzYtNDkyNS1hYWE1LTgwYmU2ZjE2NDQzMy9jMnBhLnNpZ25hdHVyZWppbnN0YW5jZUlEeCx4bXA6aWlkOmZjNGExZTRhLWJlMTctNGNmMS1hZDk3LWIxM2Y4ZDZhMGJmYXJjcmVhdGVkX2Fzc2VydGlvbnODomN1cmx4LXNlbGYjanVtYmY9YzJwYS5hc3NlcnRpb25zL2MycGEuaW5ncmVkaWVudC52M2RoYXNoWCAke/YOETaAOoxUPnGnw3C+UP5HWGToUxEQCmSXVuGZp6JjdXJseCpzZWxmI2p1bWJmPWMycGEuYXNzZXJ0aW9ucy9jMnBhLmFjdGlvbnMudjJkaGFzaFggdqTkgiXI4bC2LBG9Xo+YYioMFdff0QWlrFBWRik7JwWiY3VybHgpc2VsZiNqdW1iZj1jMnBhLmFzc2VydGlvbnMvYzJwYS5oYXNoLmRhdGFkaGFzaFggRzVvLoxP04rlNCWu3/gdDSJo0NSOxfFs3QqLfqFdib90Y2xhaW1fZ2VuZXJhdG9yX2luZm+jZG5hbWVvQW50aHJvcGljIEZpbGVzZ3ZlcnNpb25lMS4wLjBrc3BlY1ZlcnNpb25lMi40LjAAABA4anVtYgAAAChqdW1kYzJjcwARABCAAACqADibcQNjMnBhLnNpZ25hdHVyZQAAABAIY2JvctKEWQISogEmGCFZAgowggIGMIIBjaADAgECAhRA5aAK7sI50L64g/oGQgU9Z1UTADAKBggqhkjOPQQDAzBJMRcwFQYDVQQKEw5BbnRocm9waWMsIFBCQzEuMCwGA1UEAxMlQW50aHJvcGljIENvbnRlbnQgQ3JlZGVudGlhbHMgUm9vdCBDQTAeFw0yNjA4MDcxODQzNTZaFw0yODA4MDYxOTQzNTZaMEQxFzAVBgNVBAoTDkFudGhyb3BpYywgUEJDMSkwJwYDVQQDEyBBbnRocm9waWMgQ2xhdWRlIENvbnRlbnQgU2lnbmluZzBZMBMGByqGSM49AgEGCCqGSM49AwEHA0IABJh6CmvLUBgFFNU0vUKlOVtE6djd17L5SuwX0LemFisBM3dkd/3cyjxFA3Qo5S46fX0/ihY0VZ7mfb9KF703t5OjWDBWMA4GA1UdDwEB/wQEAwIHgDAVBgNVHSUEDjAMBgorBgEEAYPoXgIBMAwGA1UdEwEB/wQCMAAwHwYDVR0jBBgwFoAUzlHiBIFOZFsj+OPEz5o+nMHXXMIwCgYIKoZIzj0EAwMDZwAwZAIwMXMdFJ4BetLLVY7ORuE9noqbbAZOZn/aArXyTwFAZfKrPzxF2vPoJNf1+UCdg1XGAjBwX1zd9WGqYkqmL5SFqw1QySjr1zJfpJM9+1rdDwSPLMOPOjKuiXjoU/pUUeG9RwmhY3BhZFkNngAAAAAAAAAAAAAAAAAAAAAAAAAAAAAAAAAAAAAAAAAAAAAAAAAAAAAAAAAAAAAAAAAAAAAAAAAAAAAAAAAAAAAAAAAAAAAAAAAAAAAAAAAAAAAAAAAAAAAAAAAAAAAAAAAAAAAAAAAAAAAAAAAAAAAAAAAAAAAAAAAAAAAAAAAAAAAAAAAAAAAAAAAAAAAAAAAAAAAAAAAAAAAAAAAAAAAAAAAAAAAAAAAAAAAAAAAAAAAAAAAAAAAAAAAAAAAAAAAAAAAAAAAAAAAAAAAAAAAAAAAAAAAAAAAAAAAAAAAAAAAAAAAAAAAAAAAAAAAAAAAAAAAAAAAAAAAAAAAAAAAAAAAAAAAAAAAAAAAAAAAAAAAAAAAAAAAAAAAAAAAAAAAAAAAAAAAAAAAAAAAAAAAAAAAAAAAAAAAAAAAAAAAAAAAAAAAAAAAAAAAAAAAAAAAAAAAAAAAAAAAAAAAAAAAAAAAAAAAAAAAAAAAAAAAAAAAAAAAAAAAAAAAAAAAAAAAAAAAAAAAAAAAAAAAAAAAAAAAAAAAAAAAAAAAAAAAAAAAAAAAAAAAAAAAAAAAAAAAAAAAAAAAAAAAAAAAAAAAAAAAAAAAAAAAAAAAAAAAAAAAAAAAAAAAAAAAAAAAAAAAAAAAAAAAAAAAAAAAAAAAAAAAAAAAAAAAAAAAAAAAAAAAAAAAAAAAAAAAAAAAAAAAAAAAAAAAAAAAAAAAAAAAAAAAAAAAAAAAAAAAAAAAAAAAAAAAAAAAAAAAAAAAAAAAAAAAAAAAAAAAAAAAAAAAAAAAAAAAAAAAAAAAAAAAAAAAAAAAAAAAAAAAAAAAAAAAAAAAAAAAAAAAAAAAAAAAAAAAAAAAAAAAAAAAAAAAAAAAAAAAAAAAAAAAAAAAAAAAAAAAAAAAAAAAAAAAAAAAAAAAAAAAAAAAAAAAAAAAAAAAAAAAAAAAAAAAAAAAAAAAAAAAAAAAAAAAAAAAAAAAAAAAAAAAAAAAAAAAAAAAAAAAAAAAAAAAAAAAAAAAAAAAAAAAAAAAAAAAAAAAAAAAAAAAAAAAAAAAAAAAAAAAAAAAAAAAAAAAAAAAAAAAAAAAAAAAAAAAAAAAAAAAAAAAAAAAAAAAAAAAAAAAAAAAAAAAAAAAAAAAAAAAAAAAAAAAAAAAAAAAAAAAAAAAAAAAAAAAAAAAAAAAAAAAAAAAAAAAAAAAAAAAAAAAAAAAAAAAAAAAAAAAAAAAAAAAAAAAAAAAAAAAAAAAAAAAAAAAAAAAAAAAAAAAAAAAAAAAAAAAAAAAAAAAAAAAAAAAAAAAAAAAAAAAAAAAAAAAAAAAAAAAAAAAAAAAAAAAAAAAAAAAAAAAAAAAAAAAAAAAAAAAAAAAAAAAAAAAAAAAAAAAAAAAAAAAAAAAAAAAAAAAAAAAAAAAAAAAAAAAAAAAAAAAAAAAAAAAAAAAAAAAAAAAAAAAAAAAAAAAAAAAAAAAAAAAAAAAAAAAAAAAAAAAAAAAAAAAAAAAAAAAAAAAAAAAAAAAAAAAAAAAAAAAAAAAAAAAAAAAAAAAAAAAAAAAAAAAAAAAAAAAAAAAAAAAAAAAAAAAAAAAAAAAAAAAAAAAAAAAAAAAAAAAAAAAAAAAAAAAAAAAAAAAAAAAAAAAAAAAAAAAAAAAAAAAAAAAAAAAAAAAAAAAAAAAAAAAAAAAAAAAAAAAAAAAAAAAAAAAAAAAAAAAAAAAAAAAAAAAAAAAAAAAAAAAAAAAAAAAAAAAAAAAAAAAAAAAAAAAAAAAAAAAAAAAAAAAAAAAAAAAAAAAAAAAAAAAAAAAAAAAAAAAAAAAAAAAAAAAAAAAAAAAAAAAAAAAAAAAAAAAAAAAAAAAAAAAAAAAAAAAAAAAAAAAAAAAAAAAAAAAAAAAAAAAAAAAAAAAAAAAAAAAAAAAAAAAAAAAAAAAAAAAAAAAAAAAAAAAAAAAAAAAAAAAAAAAAAAAAAAAAAAAAAAAAAAAAAAAAAAAAAAAAAAAAAAAAAAAAAAAAAAAAAAAAAAAAAAAAAAAAAAAAAAAAAAAAAAAAAAAAAAAAAAAAAAAAAAAAAAAAAAAAAAAAAAAAAAAAAAAAAAAAAAAAAAAAAAAAAAAAAAAAAAAAAAAAAAAAAAAAAAAAAAAAAAAAAAAAAAAAAAAAAAAAAAAAAAAAAAAAAAAAAAAAAAAAAAAAAAAAAAAAAAAAAAAAAAAAAAAAAAAAAAAAAAAAAAAAAAAAAAAAAAAAAAAAAAAAAAAAAAAAAAAAAAAAAAAAAAAAAAAAAAAAAAAAAAAAAAAAAAAAAAAAAAAAAAAAAAAAAAAAAAAAAAAAAAAAAAAAAAAAAAAAAAAAAAAAAAAAAAAAAAAAAAAAAAAAAAAAAAAAAAAAAAAAAAAAAAAAAAAAAAAAAAAAAAAAAAAAAAAAAAAAAAAAAAAAAAAAAAAAAAAAAAAAAAAAAAAAAAAAAAAAAAAAAAAAAAAAAAAAAAAAAAAAAAAAAAAAAAAAAAAAAAAAAAAAAAAAAAAAAAAAAAAAAAAAAAAAAAAAAAAAAAAAAAAAAAAAAAAAAAAAAAAAAAAAAAAAAAAAAAAAAAAAAAAAAAAAAAAAAAAAAAAAAAAAAAAAAAAAAAAAAAAAAAAAAAAAAAAAAAAAAAAAAAAAAAAAAAAAAAAAAAAAAAAAAAAAAAAAAAAAAAAAAAAAAAAAAAAAAAAAAAAAAAAAAAAAAAAAAAAAAAAAAAAAAAAAAAAAAAAAAAAAAAAAAAAAAAAAAAAAAAAAAAAAAAAAAAAAAAAAAAAAAAAAAAAAAAAAAAAAAAAAAAAAAAAAAAAAAAAAAAAAAAAAAAAAAAAAAAAAAAAAAAAAAAAAAAAAAAAAAAAAAAAAAAAAAAAAAAAAAAAAAAAAAAAAAAAAAAAAAAAAAAAAAAAAAAAAAAAAAAAAAAAAAAAAAAAAAAAAAAAAAAAAAAAAAAAAAAAAAAAAAAAAAAAAAAAAAAAAAAAAAAAAAAAAAAAAAAAAAAAAAAAAAAAAAAAAAAAAAAAAAAAAAAAAAAAAAAAAAAAAAAAAAAAAAAAAAAAAAAAAAAAAAAAAAAAAAAAAAAAAAAAAAAAAAAAAAAAAAAAAAAAAAAAAAAAAAAAAAAAAAAAAAAAAAAAAAAAAAAAAAAAAAAAAAAAAAAAAAAAAAAAAAAAAAAAAAAAAAAAAAAAAAAAAAAAAAAAAAAAAAAAAAAAAAAAAAAAAAAAAAAAAAAAAAAAAAAAAAAAAAAAAAAAAAAAAAAAAAAAAAAAAAAAAAAAAAAAAAAAAAAAAAAAAAAAAAAAAAAAAAAAAAAAAAAAAAAAAAAAAAAAAAAAAAAAAAAAAAAAAAAAAAAAAAAAAAAAAAAAAAAAAAAAAAAAAAAAAAAAAAAAAAAAAAAAAAAAAAAAAAAAAAAAAAAAAAAAAAAAAAAAAAAAAAAAAAAAAAAAAAAAAAAAAAAAAAAAAAAAAAAAAAAAAAAAAAAAAAAAAAAAAAAAAAAAAAAAAAAAAAAAAAAAAAAAAAAAAAAAAAAAAAAAAAAAAAAAAAAAAAAAAAAAAAAAAAAAAAAAAAAAAAAAAAAAAAAAAAAAAAAAAAAAAAAAAAAAAAAAAAAAAAAAAAAAAAAAAAAAAAAAAAAAAAAAAAAAAAAAAAAAAAAAAAAAAAAAAAAAAAAAAAAAAAAAAAAAAAAAAAAAAAAAAAAAAAAAAAAAAAAAAAAAAAAAAAAAAAAAAAAAAAAAAAAAAAAAAAAAAAAAAAAAAAAAAAAAAAAAAAAAAAAAAAAAAAAAAAAAAAAAAAAAAAAAAAAAAAAAAAAAAAAAAAAAAAAAAAAAAAAAAAAAAAAAAAAAAAAAAAAAAAAAAAAAAAAAAAAAAAAAAAAAAAAAAAAAAAAAAAAAAAAAAAAAAAAAAAAAAAAAAAAAAAAAAAAAAAAAAAAAAAAAAAAAAAAAAAAAAAAAAAAAAAAAAAAAAAAAAAAAAAAAAAAAAAAAAAAAAAAAAAAAAAAAAAAAAAAAAAAAAAAAAAAAAAAAAAAAAAAAAAAAAAAAAAAAAAAAAAAAAAAAAAAAAAAAAAAAAAAAAAAAAAAAAAAAAAAAAAAAAAAAAAAAAAAAAAAAAAAAAAAAAAAAAAAAAAAAAAAAAAAAAAAAAAAAAAAAAAAAAAAAAAAAAAAAAAAAAAAAAAAAAAAAAAAAAAAAAAAAAAAAAAAAAAAAAAAAAAAAAAAAAAAAAAAAAAAAAAAAAAAAAAAAAAAAAAAAAAAAAAAAAAAAAAAAAAAAAAAAAAAAAAAAAAAAAAAAAAAAAAAAAAAAAAAAAAAAAAAAAAAAAAAAAAAAAAAAAAAAAAAAAAAAAAAAAAAAAAAAAAAAAAAAAAAAAAAAAAAAAAAAAAAAAAAAAAAAAAAAAAAAAAAAAAAAAAAAAAAAAAAAAAAAAAAAAAAAAAAAAAAAAAAAAAAAAAAAAAAAAAAAAAAAAAAAAAAAAAAAAAAAAAAAAAAAAAAAAAAAAAAAAAAAAAAAAAAAAAAAAAAAAAAAAAAAAAAAAAAAAAAAAAAAAAAAAAAAAAAAAAAAAAAAAAAAAAAAAAAAAAAAAAAAAAAAAAAAAAAAAAAAAAAAAAAAAAAAAAAAAAAAAAAAAAAAAAAAAAAAAAAAAAAAAAAAAAAAAAAAAAAAAAPZYQJPMqXxnxvvEa9WDPiXAuxbw0lHyU3iCztrHnqqunWhOCrsAIGUDgwfcGcJWoHFYohMWsBKyUDFXW7RHk+KoSLA=</c2pa:manifest></metadata><title>startsida-samtal-ren-blixt</title><g transform="translate(0.000000,3072.000000) scale(0.100000,-0.100000)" fill="#2B2B2B">
<path d="M13205 24573 c-913 -38 -1853 -473 -2434 -1128 -511 -576 -776 -1156 -883 -1935 -20 -148 -17 -651 5 -820 97 -738 387 -1353 912 -1933 184 -204 501 -456 748 -596 103 -59 106 56 -33 -1291 -16 -157 -36 -359 -45 -450 -9 -91 -20 -201 -26 -245 -16 -138 -21 -140 287 117 148 123 467 388 709 588 242 200 545 451 673 557 128 107 244 198 258 203 14 6 79 10 145 10 639 0 1383 262 1949 686 1219 913 1704 2442 1231 3879 -485 1473 -1895 2425 -3496 2358z m485 -714 c1043 -110 1966 -822 2315 -1784 424 -1169 38 -2443 -965 -3182 -485 -358 -997 -527 -1629 -540 l-263 -6 -52 -41 c-28 -23 -123 -100 -211 -171 -148 -120 -295 -239 -473 -386 -85 -70 -99 -77 -109 -53 -7 18 10 199 53 588 l25 219 -22 24 c-13 12 -27 23 -32 23 -22 0 -287 135 -410 209 -452 272 -806 651 -1044 1116 -884 1735 267 3795 2227 3984 63 6 138 13 165 15 73 5 315 -3 425 -15z"></path>
<path d="M6585 19221 c-625 -45 -1117 -469 -1251 -1082 -18 -81 -19 -281 -19 -6264 l0 -6180 37 -76 c46 -95 130 -176 215 -211 l58 -23 2380 -3 c2344 -2 2381 -2 2445 17 114 35 196 107 248 218 l27 58 0 1235 c0 1352 2 1300 -61 1623 -69 356 -215 715 -426 1049 -157 249 -306 417 -653 737 -99 91 -245 227 -325 302 -80 75 -186 173 -237 218 -70 62 -95 91 -103 119 -6 22 -10 173 -10 368 0 303 1 332 18 347 14 13 68 16 372 20 342 4 359 5 456 30 413 106 744 406 882 799 66 187 75 262 80 688 2 212 8 390 13 396 5 6 54 14 109 18 136 8 192 21 285 66 245 118 384 353 372 630 -6 140 -8 146 -154 468 -63 140 -161 363 -218 495 -56 133 -157 364 -223 512 -145 328 -149 340 -157 490 -52 995 -554 1879 -1381 2433 -386 258 -857 425 -1379 487 -148 18 -1204 30 -1400 16z m1356 -791 c628 -62 1194 -385 1584 -905 285 -379 439 -822 465 -1340 12 -250 7 -237 410 -1150 295 -668 282 -636 258 -652 -7 -4 -96 -9 -198 -9 -165 -1 -191 -4 -242 -23 -128 -49 -203 -124 -238 -237 -19 -63 -20 -92 -20 -623 0 -622 -2 -640 -67 -763 -70 -133 -170 -218 -313 -264 -49 -16 -114 -18 -595 -23 l-540 -6 -67 -33 c-84 -41 -165 -126 -198 -208 l-25 -59 -3 -490 c-2 -326 -7 -494 -14 -502 -14 -17 -1918 -19 -1949 -3 -19 11 -19 60 -19 3418 0 3028 2 3414 15 3467 50 190 223 360 409 400 76 17 1187 21 1347 5z m495 -8089 c21 -15 90 -77 153 -136 63 -59 234 -219 380 -355 286 -266 402 -382 497 -500 259 -321 420 -709 480 -1160 25 -192 34 -1988 10 -2025 l-16 -25 -1866 0 c-1267 0 -1872 3 -1885 10 -19 11 -19 45 -19 2103 0 1615 3 2096 12 2105 9 9 270 12 1113 12 l1102 0 39 -29z"></path>
<path d="M23030 19219 c-1626 -64 -2891 -1308 -2989 -2939 l-9 -145 -110 -255 c-60 -140 -149 -345 -197 -455 -48 -110 -129 -297 -180 -415 -51 -118 -122 -280 -158 -360 -86 -193 -100 -241 -100 -364 0 -370 271 -645 650 -663 64 -3 117 -11 122 -17 5 -6 11 -186 14 -401 5 -417 10 -468 68 -645 132 -408 468 -726 887 -837 93 -25 111 -26 453 -32 280 -5 359 -9 372 -20 15 -12 17 -51 17 -373 l0 -359 -37 -38 c-46 -47 -430 -406 -667 -623 -430 -395 -667 -713 -849 -1139 -141 -331 -218 -652 -246 -1035 -19 -249 -15 -2368 5 -2435 38 -130 143 -235 276 -273 48 -15 295 -16 2434 -14 l2379 3 67 33 c94 46 161 110 200 190 l33 67 0 6195 c0 5879 -1 6199 -18 6277 -115 535 -504 930 -1032 1045 -140 31 -910 46 -1385 27z m1210 -807 c169 -61 284 -172 349 -340 l26 -67 3 -3422 c2 -3107 1 -3423 -14 -3437 -21 -21 -1934 -25 -1952 -3 -6 7 -12 189 -15 497 -6 521 -7 533 -60 623 -32 54 -98 109 -174 145 l-58 27 -545 5 c-598 6 -569 3 -700 70 -69 35 -162 135 -205 219 -63 126 -65 144 -65 742 0 311 -4 558 -10 588 -22 119 -106 228 -214 278 -59 27 -69 28 -266 34 -113 3 -206 7 -207 8 -20 11 53 188 562 1355 82 188 94 241 105 451 10 193 12 203 41 367 147 812 758 1520 1534 1777 300 100 410 110 1170 108 l630 -2 65 -23z m364 -8064 c25 -35 24 -4162 -1 -4190 -15 -17 -87 -18 -1884 -18 l-1869 0 -15 23 c-18 29 -14 1798 5 1972 44 402 139 682 341 1005 151 242 285 384 834 885 66 60 167 155 225 211 58 57 119 110 135 118 26 14 157 16 1122 16 l1092 0 15 -22z"></path>
</g><polygon points="1845,786 2070,786 1950,1020 2085,1020 1800,1410 1884,1125 1746,1125" fill="none" stroke="#FFA047" stroke-width="72" stroke-linejoin="round"></polygon></svg>