<svg xmlns="http://www.w3.org/2000/svg" viewBox="305 248 2005 2005" width="1024" height="1024" xmlns:c2pa="http://c2pa.org/manifest"><metadata><c2pa:manifest>AAAWgmp1bWIAAAAeanVtZGMycGEAEQAQgAAAqgA4m3EDYzJwYQAAABZcanVtYgAAAEdqdW1kYzJtYQARABCAAACqADibcQN1cm46YzJwYToxOTlmYzAxNi03YWI0LTQyMjQtODgxNy0xOWE5OWU0M2FjNGYAAAADl2p1bWIAAAApanVtZGMyYXMAEQAQgAAAqgA4m3EDYzJwYS5hc3NlcnRpb25zAAAAALxqdW1iAAAARGp1bWRjYm9yABEAEIAAAKoAOJtxE2MycGEuaW5ncmVkaWVudC52MwAAAAAYYzJzaAO2iqlPTBLo5gvfetrYcFYAAABwY2JvcqNpZGM6Zm9ybWF0bWltYWdlL3N2Zyt4bWxqaW5zdGFuY2VJRHgseG1wOmlpZDoyNDUzMGZlOC1jMmVmLTQwNzktOTVkMS05MDIxNzA0NmI2ZmRscmVsYXRpb25zaGlwaHBhcmVudE9mAAAB4mp1bWIAAABBanVtZGNib3IAEQAQgAAAqgA4m3ETYzJwYS5hY3Rpb25zLnYyAAAAABhjMnNot/ZNu784PQma0d6n3Eh3SAAAAZljYm9yomdhY3Rpb25zgqJmYWN0aW9ua2MycGEub3BlbmVkanBhcmFtZXRlcnOha2luZ3JlZGllbnRzgaJjdXJseC1zZWxmI2p1bWJmPWMycGEuYXNzZXJ0aW9ucy9jMnBhLmluZ3JlZGllbnQudjNkaGFzaFggZ8dKRmWlmH563fjBOm5BfOxImdvwov2HNFp94NjVBN6kZmFjdGlvbngdY29tLmFudGhyb3BpYy5jbGF1ZGUucHJvdmlkZWRqcGFyYW1ldGVyc6F4H2NvbS5hbnRocm9waWMub3JpZ2luLWNvbmZpZGVuY2VndW5rbm93bmtkZXNjcmlwdGlvbnhmQ2xhdWRlIHByb3ZpZGVkIHRoaXMgZmlsZSBhdCB0aGUgcmVxdWVzdCBvZiBhIHVzZXIgYW5kIG1heSBoYXZlIGNyZWF0ZWQgb3IgbW9kaWZpZWQgdGhlIGZpbGUgY29udGVudHMubXNvZnR3YXJlQWdlbnShZG5hbWVmQ2xhdWRlcmFsbEFjdGlvbnNJbmNsdWRlZPUAAADIanVtYgAAAEBqdW1kY2JvcgARABCAAACqADibcRNjMnBhLmhhc2guZGF0YQAAAAAYYzJzaHQPzQgjFs3jS7wXqNJ9PhoAAACAY2JvcqVjYWxnZnNoYTI1NmNwYWRNAAAAAAAAAAAAAAAAAGRoYXNoWCCFvy9dezTlsRopiOliRRPuKgNfJoo03jR9mRRcEHdHqWRuYW1lbmp1bWJmIG1hbmlmZXN0amV4Y2x1c2lvbnOBomVzdGFydBieZmxlbmd0aBkeBAAAAj5qdW1iAAAAJ2p1bWRjMmNsABEAEIAAAKoAOJtxA2MycGEuY2xhaW0udjIAAAACD2Nib3KlY2FsZ2ZzaGEyNTZpc2lnbmF0dXJleE1zZWxmI2p1bWJmPS9jMnBhL3VybjpjMnBhOjE5OWZjMDE2LTdhYjQtNDIyNC04ODE3LTE5YTk5ZTQzYWM0Zi9jMnBhLnNpZ25hdHVyZWppbnN0YW5jZUlEeCx4bXA6aWlkOmMxY2YxMmRhLWE3MzMtNDk2My1iNTc0LWRiMmUwMWYxMzdlZnJjcmVhdGVkX2Fzc2VydGlvbnODomN1cmx4LXNlbGYjanVtYmY9YzJwYS5hc3NlcnRpb25zL2MycGEuaW5ncmVkaWVudC52M2RoYXNoWCBnx0pGZaWYfnrd+ME6bkF87EiZ2/Ci/Yc0Wn3g2NUE3qJjdXJseCpzZWxmI2p1bWJmPWMycGEuYXNzZXJ0aW9ucy9jMnBhLmFjdGlvbnMudjJkaGFzaFggHEYB3IAUFeqXbKGgiM1aJ3dwUkDD7N3Sc7lonU5uq9uiY3VybHgpc2VsZiNqdW1iZj1jMnBhLmFzc2VydGlvbnMvYzJwYS5oYXNoLmRhdGFkaGFzaFggcwNNVYzwgxXJ4Q9JfxFqvy/LMzVvv+m0xGDzDfuOM1B0Y2xhaW1fZ2VuZXJhdG9yX2luZm+jZG5hbWVvQW50aHJvcGljIEZpbGVzZ3ZlcnNpb25lMS4wLjBrc3BlY1ZlcnNpb25lMi40LjAAABA4anVtYgAAAChqdW1kYzJjcwARABCAAACqADibcQNjMnBhLnNpZ25hdHVyZQAAABAIY2JvctKEWQISogEmGCFZAgowggIGMIIBjaADAgECAhRA5aAK7sI50L64g/oGQgU9Z1UTADAKBggqhkjOPQQDAzBJMRcwFQYDVQQKEw5BbnRocm9waWMsIFBCQzEuMCwGA1UEAxMlQW50aHJvcGljIENvbnRlbnQgQ3JlZGVudGlhbHMgUm9vdCBDQTAeFw0yNjA4MDcxODQzNTZaFw0yODA4MDYxOTQzNTZaMEQxFzAVBgNVBAoTDkFudGhyb3BpYywgUEJDMSkwJwYDVQQDEyBBbnRocm9waWMgQ2xhdWRlIENvbnRlbnQgU2lnbmluZzBZMBMGByqGSM49AgEGCCqGSM49AwEHA0IABJh6CmvLUBgFFNU0vUKlOVtE6djd17L5SuwX0LemFisBM3dkd/3cyjxFA3Qo5S46fX0/ihY0VZ7mfb9KF703t5OjWDBWMA4GA1UdDwEB/wQEAwIHgDAVBgNVHSUEDjAMBgorBgEEAYPoXgIBMAwGA1UdEwEB/wQCMAAwHwYDVR0jBBgwFoAUzlHiBIFOZFsj+OPEz5o+nMHXXMIwCgYIKoZIzj0EAwMDZwAwZAIwMXMdFJ4BetLLVY7ORuE9noqbbAZOZn/aArXyTwFAZfKrPzxF2vPoJNf1+UCdg1XGAjBwX1zd9WGqYkqmL5SFqw1QySjr1zJfpJM9+1rdDwSPLMOPOjKuiXjoU/pUUeG9RwmhY3BhZFkNngAAAAAAAAAAAAAAAAAAAAAAAAAAAAAAAAAAAAAAAAAAAAAAAAAAAAAAAAAAAAAAAAAAAAAAAAAAAAAAAAAAAAAAAAAAAAAAAAAAAAAAAAAAAAAAAAAAAAAAAAAAAAAAAAAAAAAAAAAAAAAAAAAAAAAAAAAAAAAAAAAAAAAAAAAAAAAAAAAAAAAAAAAAAAAAAAAAAAAAAAAAAAAAAAAAAAAAAAAAAAAAAAAAAAAAAAAAAAAAAAAAAAAAAAAAAAAAAAAAAAAAAAAAAAAAAAAAAAAAAAAAAAAAAAAAAAAAAAAAAAAAAAAAAAAAAAAAAAAAAAAAAAAAAAAAAAAAAAAAAAAAAAAAAAAAAAAAAAAAAAAAAAAAAAAAAAAAAAAAAAAAAAAAAAAAAAAAAAAAAAAAAAAAAAAAAAAAAAAAAAAAAAAAAAAAAAAAAAAAAAAAAAAAAAAAAAAAAAAAAAAAAAAAAAAAAAAAAAAAAAAAAAAAAAAAAAAAAAAAAAAAAAAAAAAAAAAAAAAAAAAAAAAAAAAAAAAAAAAAAAAAAAAAAAAAAAAAAAAAAAAAAAAAAAAAAAAAAAAAAAAAAAAAAAAAAAAAAAAAAAAAAAAAAAAAAAAAAAAAAAAAAAAAAAAAAAAAAAAAAAAAAAAAAAAAAAAAAAAAAAAAAAAAAAAAAAAAAAAAAAAAAAAAAAAAAAAAAAAAAAAAAAAAAAAAAAAAAAAAAAAAAAAAAAAAAAAAAAAAAAAAAAAAAAAAAAAAAAAAAAAAAAAAAAAAAAAAAAAAAAAAAAAAAAAAAAAAAAAAAAAAAAAAAAAAAAAAAAAAAAAAAAAAAAAAAAAAAAAAAAAAAAAAAAAAAAAAAAAAAAAAAAAAAAAAAAAAAAAAAAAAAAAAAAAAAAAAAAAAAAAAAAAAAAAAAAAAAAAAAAAAAAAAAAAAAAAAAAAAAAAAAAAAAAAAAAAAAAAAAAAAAAAAAAAAAAAAAAAAAAAAAAAAAAAAAAAAAAAAAAAAAAAAAAAAAAAAAAAAAAAAAAAAAAAAAAAAAAAAAAAAAAAAAAAAAAAAAAAAAAAAAAAAAAAAAAAAAAAAAAAAAAAAAAAAAAAAAAAAAAAAAAAAAAAAAAAAAAAAAAAAAAAAAAAAAAAAAAAAAAAAAAAAAAAAAAAAAAAAAAAAAAAAAAAAAAAAAAAAAAAAAAAAAAAAAAAAAAAAAAAAAAAAAAAAAAAAAAAAAAAAAAAAAAAAAAAAAAAAAAAAAAAAAAAAAAAAAAAAAAAAAAAAAAAAAAAAAAAAAAAAAAAAAAAAAAAAAAAAAAAAAAAAAAAAAAAAAAAAAAAAAAAAAAAAAAAAAAAAAAAAAAAAAAAAAAAAAAAAAAAAAAAAAAAAAAAAAAAAAAAAAAAAAAAAAAAAAAAAAAAAAAAAAAAAAAAAAAAAAAAAAAAAAAAAAAAAAAAAAAAAAAAAAAAAAAAAAAAAAAAAAAAAAAAAAAAAAAAAAAAAAAAAAAAAAAAAAAAAAAAAAAAAAAAAAAAAAAAAAAAAAAAAAAAAAAAAAAAAAAAAAAAAAAAAAAAAAAAAAAAAAAAAAAAAAAAAAAAAAAAAAAAAAAAAAAAAAAAAAAAAAAAAAAAAAAAAAAAAAAAAAAAAAAAAAAAAAAAAAAAAAAAAAAAAAAAAAAAAAAAAAAAAAAAAAAAAAAAAAAAAAAAAAAAAAAAAAAAAAAAAAAAAAAAAAAAAAAAAAAAAAAAAAAAAAAAAAAAAAAAAAAAAAAAAAAAAAAAAAAAAAAAAAAAAAAAAAAAAAAAAAAAAAAAAAAAAAAAAAAAAAAAAAAAAAAAAAAAAAAAAAAAAAAAAAAAAAAAAAAAAAAAAAAAAAAAAAAAAAAAAAAAAAAAAAAAAAAAAAAAAAAAAAAAAAAAAAAAAAAAAAAAAAAAAAAAAAAAAAAAAAAAAAAAAAAAAAAAAAAAAAAAAAAAAAAAAAAAAAAAAAAAAAAAAAAAAAAAAAAAAAAAAAAAAAAAAAAAAAAAAAAAAAAAAAAAAAAAAAAAAAAAAAAAAAAAAAAAAAAAAAAAAAAAAAAAAAAAAAAAAAAAAAAAAAAAAAAAAAAAAAAAAAAAAAAAAAAAAAAAAAAAAAAAAAAAAAAAAAAAAAAAAAAAAAAAAAAAAAAAAAAAAAAAAAAAAAAAAAAAAAAAAAAAAAAAAAAAAAAAAAAAAAAAAAAAAAAAAAAAAAAAAAAAAAAAAAAAAAAAAAAAAAAAAAAAAAAAAAAAAAAAAAAAAAAAAAAAAAAAAAAAAAAAAAAAAAAAAAAAAAAAAAAAAAAAAAAAAAAAAAAAAAAAAAAAAAAAAAAAAAAAAAAAAAAAAAAAAAAAAAAAAAAAAAAAAAAAAAAAAAAAAAAAAAAAAAAAAAAAAAAAAAAAAAAAAAAAAAAAAAAAAAAAAAAAAAAAAAAAAAAAAAAAAAAAAAAAAAAAAAAAAAAAAAAAAAAAAAAAAAAAAAAAAAAAAAAAAAAAAAAAAAAAAAAAAAAAAAAAAAAAAAAAAAAAAAAAAAAAAAAAAAAAAAAAAAAAAAAAAAAAAAAAAAAAAAAAAAAAAAAAAAAAAAAAAAAAAAAAAAAAAAAAAAAAAAAAAAAAAAAAAAAAAAAAAAAAAAAAAAAAAAAAAAAAAAAAAAAAAAAAAAAAAAAAAAAAAAAAAAAAAAAAAAAAAAAAAAAAAAAAAAAAAAAAAAAAAAAAAAAAAAAAAAAAAAAAAAAAAAAAAAAAAAAAAAAAAAAAAAAAAAAAAAAAAAAAAAAAAAAAAAAAAAAAAAAAAAAAAAAAAAAAAAAAAAAAAAAAAAAAAAAAAAAAAAAAAAAAAAAAAAAAAAAAAAAAAAAAAAAAAAAAAAAAAAAAAAAAAAAAAAAAAAAAAAAAAAAAAAAAAAAAAAAAAAAAAAAAAAAAAAAAAAAAAAAAAAAAAAAAAAAAAAAAAAAAAAAAAAAAAAAAAAAAAAAAAAAAAAAAAAAAAAAAAAAAAAAAAAAAAAAAAAAAAAAAAAAAAAAAAAAAAAAAAAAAAAAAAAAAAAAAAAAAAAAAAAAAAAAAAAAAAAAAAAAAAAAAAAAAAAAAAAAAAAAAAAAAAAAAAAAAAAAAAAAAAAAAAAAAAAAAAAAAAAAAAAAAAAAAAAAAAAAAAAAAAAAAAAAAAAAAAAAAAAAAAAAAAAAAAAAAAAAAAAAAAAAAAAAAAAAAAAAAAAAAAAAAAAAAAAAAAAAAAAAAAAAAAAAAAAAAAAAAAAAAAAAAAAAAAAAAAAAAAAAAAAAAAAAAAAAAAAAAAAAAAAAAAAAAAAAAAAAAAAAAAAAAAAAAAAAAAAAAAAAAAAAAAAAAAAAAAAAAAAAAAAAAAAAAAAAAAAAAAAAAAAAAAAAAAAAAAAAAAAAAAAAAAAAAAAAAAAAAAAAAAAAAAAAAAAAAAAAAAAAAAAAAAAAAAAAAAAAAAAAAAAAAAAAAAAAAAAAAAAAAAAAAAAAAAAAAAAAAAAAAAAAAAAAAAAAAAAAAAAAAAAAAAAAAAAAAAAAAAAAAAAAAAAAAAAAAAAAAAAAAAAAAAAAAAAAAAAAAAAAAAAAAAAAAAAAAAAAAAAAAAAAAAAAAAAAAAAAAAAAAAAAAAAAAAAAAAAAAAAAAAAAAAAAAAAAAAAAAAAAAAAAAAAAAAAAAAAAAAAAAAAAAAAAAAAAAAAAAAAAAAAAAAAAAAAAAAAAAAAAAAAAAAAAAAAAAAAAAAAAAAAAAAAAAAAAAAAAAAAAAAAAAAAAAAAAAAAAAAAAAAAAAAAAAAAAAAAAAAAAAAAAAAAAAAAAAAAAAAAAAAAAAAAAAAAAAAAAAAAAAAAAAAAAAAAAAAAAAAAAAAAAAAAAAAAAAAAAAAAAAAAAAAAAAAAAAAAAAAAAAAAAAAAAAAAAAAAAAAAAAAAAAAAAAAAAAAAAAAAAAAAAAAAAAAAAAAAAAAAAAAAAAAAAAAAAAAAAAAAAAAAAAAAAAAAAAAAAAAAAAAAAAAAAAAAAAAAAAAAAAAAAAAAAAAAAAAAAAAAAAAAAAAAAAAAAAAAAAAAAAAAAAAAAAAAAAAAAAAAAAAAAAAAAAAAAAAAAAAAAAAAAAAAAAAAAAAAAAAAAAAAAAAAAAAAAAAAAAAAAAAAAAAAAAAAAAAAAAAAAAAAAAAAAAAAAAAAAAAAAAAAAAAAAAAAAAAAAAAAAAAAAAAAAAAAAAAAAAAAAAAAAAAAAAAAAAAAAAAAAAAAAAAAAAAAAAAAAAAAAAAAAAAAAAAAAAAAAAAAAAAAAAAAAAAAAAAAAAAAAAAAAAAAAAAAAAAAAAAAAAAAAAAAAAAAAAAAAAAAAAAAAAAAAAAAAAAAAAAAAAAAAAAAAAAAAAAAAAAAAAAAAAAAAAAAAAAAAAAAAAAAAAAAAAAAAAAAAAAAAAAAAAAAAAAAAAAAAAAAAAAAAAAAAAAAAAAAAAAAAAAAAAAAAAAAAAAAAAAAAAAAAAAAAAAAAAAAAAAAAAAAAAAAAAAAAAAAAAAAAAAAAAAAAAAAAAAAAAAAAAAAAAAAAAAAAAAAAAAAAAAAAAAAAAAAAAAAAAAAAAAAAAAAAAAAAAAAAAAAAAAAAAAAAAAAAAAAAAAAAAAAAAAAAAAAAAAAAAAAAAAAAAAAAAAAAAAAAAAAAAAAAAAAAAAAPZYQDn0FMPN5k6V4+vJEN//8VPmW8asCL18ezAom7RDMyG1zj8Oj9tg19+OvODIaPybthAB1IofQFafV64eO6VKPxg=</c2pa:manifest></metadata><title>omslag-3-knut</title><g transform="translate(0.000000,2560.000000) scale(0.100000,-0.100000)" fill="#2B2B2B">
<path d="M8626 22054 c-331 -52 -679 -253 -895 -518 -254 -312 -379 -710 -336 -1075 44 -379 187 -713 534 -1240 33 -51 61 -103 61 -114 0 -11 -45 -88 -99 -171 -178 -271 -308 -520 -410 -784 -123 -316 -121 -756 6 -1067 158 -391 497 -716 881 -846 240 -81 528 -98 777 -45 199 43 183 42 196 13 9 -20 7 -46 -9 -129 -11 -56 -23 -123 -27 -148 -3 -25 -17 -115 -30 -200 -34 -219 -63 -412 -75 -505 -6 -44 -17 -116 -25 -160 -8 -44 -28 -170 -45 -280 -18 -110 -40 -247 -50 -305 -36 -208 -35 -225 14 -202 23 10 245 208 625 556 85 77 180 164 211 191 200 177 1001 908 1142 1043 133 126 138 128 247 106 188 -37 484 -11 708 62 520 170 924 684 975 1241 40 442 -102 868 -493 1476 -51 79 -89 149 -89 163 0 14 24 62 53 107 271 415 420 720 498 1014 55 210 52 528 -7 736 -76 268 -188 462 -384 658 -345 346 -803 495 -1270 414 -298 -52 -544 -175 -956 -476 -146 -107 -157 -109 -241 -44 -304 235 -565 385 -827 474 -195 67 -445 88 -660 55z m483 -539 c209 -67 605 -290 657 -370 23 -35 3 -65 -111 -165 -140 -123 -144 -125 -215 -85 -97 55 -289 144 -370 171 -75 25 -99 28 -210 28 -119 0 -128 -1 -202 -33 -130 -56 -226 -156 -284 -296 -27 -67 -29 -77 -28 -220 0 -146 1 -153 38 -263 63 -190 162 -395 317 -657 39 -67 240 -353 350 -501 134 -178 406 -488 636 -725 76 -78 123 -134 123 -147 0 -12 -20 -37 -52 -63 -29 -24 -74 -62 -100 -86 -27 -24 -57 -43 -70 -43 -40 0 -385 368 -708 754 -664 796 -971 1361 -970 1786 1 283 128 548 354 735 107 89 210 144 331 179 126 35 124 35 285 32 126 -3 156 -7 229 -31z m2658 1 c301 -83 500 -246 629 -514 182 -376 104 -786 -251 -1338 -67 -104 -96 -115 -138 -51 -8 13 -52 68 -96 122 -47 56 -81 107 -81 119 0 12 21 62 46 110 59 114 106 231 141 353 25 87 28 114 28 243 0 142 -1 147 -33 220 -61 139 -160 236 -300 292 -50 20 -74 23 -197 22 -132 0 -145 -2 -230 -32 -234 -84 -620 -332 -975 -628 -202 -168 -295 -255 -616 -580 -183 -185 -287 -284 -300 -284 -46 0 -172 187 -160 236 9 36 254 309 487 545 240 242 500 475 729 655 445 349 630 454 945 538 53 14 282 -3 372 -28z m-2750 -976 c128 -59 131 -77 31 -171 -52 -49 -81 -69 -100 -69 -34 0 -35 2 -64 111 -24 91 -30 149 -16 163 13 14 80 -1 149 -34z m2515 23 c24 -22 23 -40 -8 -120 -54 -143 -60 -151 -108 -139 -32 8 -136 131 -136 161 0 64 202 143 252 98z m-493 -620 c115 -120 227 -239 248 -265 21 -25 101 -122 178 -215 474 -570 673 -851 835 -1178 143 -289 194 -457 193 -645 -2 -464 -324 -862 -766 -945 -185 -34 -297 -28 -492 26 -190 54 -200 49 -532 -269 -126 -119 -302 -284 -393 -367 -91 -82 -225 -206 -298 -275 -212 -199 -215 -199 -183 32 12 90 31 217 41 283 10 66 28 185 40 265 32 207 30 205 201 335 233 176 396 313 662 557 82 74 92 75 207 20 400 -191 575 -215 791 -111 256 124 346 400 242 739 -34 109 -142 344 -223 485 -34 61 -78 136 -97 169 -45 79 -204 311 -326 476 -170 230 -388 483 -651 755 -160 166 -160 163 -39 269 128 113 108 121 362 -141z m-684 -475 c72 -73 170 -177 218 -231 128 -145 135 -121 -127 -383 -222 -223 -234 -232 -286 -204 -26 14 -358 367 -394 418 -19 28 -26 49 -22 64 6 27 239 290 348 396 107 102 103 103 263 -60z m652 -811 c22 -12 99 -105 134 -162 35 -56 27 -75 -78 -192 -557 -616 -1175 -1172 -1548 -1392 -351 -208 -562 -262 -831 -216 -448 79 -775 476 -776 945 -1 232 117 548 326 878 102 161 100 161 231 10 135 -157 132 -134 45 -312 -57 -118 -110 -240 -110 -254 0 -5 -9 -37 -19 -70 -53 -163 -47 -347 15 -477 142 -300 495 -360 903 -155 275 137 508 301 841 590 255 221 300 265 748 733 90 94 87 92 119 74z m-1944 -805 c37 -39 67 -76 67 -84 0 -21 -37 -51 -108 -87 -87 -43 -145 -41 -162 5 -12 30 50 211 81 236 27 23 38 17 122 -70z m2411 63 c8 -8 27 -53 42 -98 32 -98 28 -147 -12 -174 -25 -16 -28 -15 -122 33 -123 63 -126 74 -46 165 84 95 105 107 138 74z"></path>
<path d="M5130 15914 c-264 -22 -430 -81 -610 -215 -240 -179 -371 -388 -425 -678 -21 -117 -23 -10580 -1 -10672 25 -107 106 -207 204 -252 l47 -22 2045 -3 c1536 -2 2059 0 2100 9 106 22 180 77 230 170 32 61 34 70 42 214 11 192 0 1826 -13 2005 -25 334 -127 676 -301 1010 -175 337 -344 536 -793 938 -387 347 -442 400 -459 443 -13 32 -16 86 -16 303 l0 265 27 20 c25 21 36 21 292 20 297 -2 409 12 548 70 369 153 660 535 702 923 6 54 11 216 11 362 0 262 0 265 22 280 12 9 34 16 48 16 63 0 220 34 275 59 191 88 327 300 328 511 0 104 -15 159 -98 350 -68 156 -218 495 -258 582 -14 29 -46 103 -72 163 -26 61 -72 164 -101 230 -114 261 -104 218 -144 595 -12 107 -30 236 -42 285 -166 730 -686 1404 -1335 1733 -298 150 -561 235 -853 273 -80 11 -1295 21 -1400 13z m1040 -654 c340 -9 412 -20 627 -94 476 -164 919 -571 1143 -1051 106 -226 159 -463 175 -785 8 -149 25 -218 101 -400 31 -74 66 -160 79 -190 12 -30 109 -244 214 -475 105 -231 191 -427 191 -435 -1 -38 -15 -43 -117 -41 -249 4 -371 -43 -449 -174 -37 -65 -44 -150 -44 -621 0 -408 -1 -447 -20 -520 -38 -151 -154 -275 -303 -327 -20 -7 -207 -13 -512 -16 -553 -7 -547 -6 -643 -101 -95 -96 -96 -100 -102 -583 -4 -357 -7 -419 -20 -427 -9 -6 -350 -10 -871 -10 -802 0 -858 1 -878 18 l-20 17 -1 2920 c-1 2551 1 2927 13 2973 45 158 201 298 358 320 83 12 676 13 1079 2z m595 -6929 c85 -52 778 -709 893 -846 212 -253 344 -554 409 -935 l26 -155 4 -813 c4 -732 3 -816 -12 -838 l-15 -24 -1660 0 c-1790 0 -1690 -3 -1690 48 0 9 0 813 -1 1786 -2 1707 -1 1770 16 1783 16 11 195 13 1009 13 947 0 992 -1 1021 -19z"></path>
<path d="M19820 15913 c-297 -29 -456 -64 -705 -155 -335 -122 -713 -369 -954 -623 -445 -471 -696 -1042 -736 -1675 -12 -176 -20 -202 -170 -535 -43 -93 -92 -204 -110 -245 -28 -66 -183 -414 -220 -495 -123 -273 -158 -382 -159 -495 -1 -199 131 -409 316 -499 65 -32 216 -70 278 -71 20 0 45 -7 57 -15 20 -14 21 -24 26 -342 4 -315 6 -332 32 -433 74 -292 307 -595 560 -732 192 -104 300 -126 660 -134 320 -6 310 -5 324 -45 11 -31 7 -417 -5 -516 -9 -71 -60 -124 -514 -528 -411 -366 -604 -599 -766 -925 -129 -260 -196 -454 -248 -715 -50 -257 -51 -279 -51 -1375 l0 -1025 29 -60 c17 -33 53 -83 82 -112 96 -97 -123 -88 2239 -88 l2070 0 60 24 c80 32 164 117 196 198 l22 58 1 5285 0 5285 -22 101 c-106 488 -487 839 -959 884 -97 9 -1244 12 -1333 3z m1247 -652 c206 -17 355 -136 413 -331 20 -64 20 -100 18 -2977 -3 -2775 -4 -2913 -21 -2930 -17 -17 -65 -18 -885 -15 -742 3 -869 6 -882 18 -13 12 -16 78 -20 427 -5 366 -7 418 -23 462 -38 102 -98 162 -202 201 -46 17 -80 18 -440 16 -462 -4 -572 4 -660 48 -110 55 -189 152 -230 282 -25 79 -25 81 -25 491 -1 510 -6 584 -51 666 -64 121 -151 160 -383 169 -200 9 -196 4 -134 143 26 57 81 183 123 279 42 96 103 234 135 305 31 72 79 180 105 240 26 61 56 128 66 150 88 195 105 262 114 425 24 485 161 865 433 1204 211 263 498 476 804 596 57 23 114 45 127 51 13 5 87 24 165 41 l141 32 545 6 c300 3 572 7 605 7 33 1 106 -2 162 -6z m390 -6912 c15 -5 31 -16 35 -22 4 -7 8 -811 8 -1787 0 -1591 -2 -1778 -16 -1798 l-15 -22 -1668 0 c-1620 0 -1668 1 -1685 19 -16 17 -17 79 -13 867 l3 849 26 130 c87 438 227 717 494 990 96 98 675 640 769 721 l58 49 971 5 c534 3 979 6 988 8 9 1 29 -3 45 -9z"></path>
</g><g transform="translate(0.000000,2560.000000) scale(0.100000,-0.100000)" fill="#FFA047">
<path d="M14918 21479 c-48 -4 -135 -14 -195 -23 -59 -8 -139 -18 -178 -22 -105 -9 -225 -42 -445 -122 -189 -69 -216 -80 -387 -167 -245 -123 -245 -124 -247 -515 -1 -302 -4 -331 -72 -625 -29 -124 -209 -523 -371 -817 -37 -68 -27 -111 64 -288 41 -80 90 -181 108 -225 90 -216 126 -299 134 -309 6 -7 21 -54 35 -106 14 -52 39 -140 56 -195 53 -173 63 -255 57 -480 -5 -173 -9 -213 -32 -300 -14 -55 -30 -118 -36 -140 -60 -238 -232 -600 -357 -753 -37 -45 -52 -111 -38 -167 11 -42 152 -181 294 -289 150 -114 294 -212 332 -227 14 -6 74 -35 134 -65 193 -98 542 -224 676 -245 41 -6 140 -24 220 -39 80 -16 163 -31 185 -35 22 -4 135 -8 250 -10 125 -1 228 -7 255 -15 63 -17 171 -90 265 -180 91 -87 352 -307 465 -392 90 -68 137 -106 316 -263 141 -123 178 -154 349 -291 158 -126 185 -144 221 -144 57 0 66 25 58 170 -3 69 -12 148 -20 175 -8 28 -21 106 -30 174 -8 69 -23 163 -34 210 -24 108 -36 179 -50 306 -6 55 -22 165 -35 245 -38 225 -55 346 -55 396 0 76 20 104 142 190 128 91 370 295 443 375 108 117 310 381 345 449 12 25 35 61 49 80 78 101 245 449 321 667 40 116 104 436 120 603 12 118 11 504 -1 680 -15 226 -88 515 -203 805 -43 108 -167 360 -212 432 -19 29 -45 76 -60 105 -14 29 -49 85 -78 123 -29 39 -70 95 -93 125 -85 116 -282 309 -449 440 -25 19 -77 61 -117 93 -39 33 -92 71 -117 85 -25 14 -65 39 -90 56 -128 87 -383 216 -550 279 -217 82 -235 87 -370 107 -69 11 -179 31 -245 45 -177 39 -503 54 -727 34z"></path>
</g></svg>